<svg xmlns="http://www.w3.org/2000/svg" viewBox="0 0 1440 900" role="img" aria-label="Dashboard de vendas">
  <rect width="1440" height="900" fill="#eef3f9"/>
  <rect width="1440" height="150" fill="#163468"/>
  <circle cx="1320" cy="-20" r="150" fill="#3f78dd" opacity=".75"/>
  <text x="54" y="72" fill="#fff" font-family="Arial, sans-serif" font-size="34" font-weight="800">Resumo de Vendas</text>
  <text x="54" y="108" fill="#d7e5ff" font-family="Arial, sans-serif" font-size="18">Indicadores por venda, produto, categoria e cidade</text>
  <g transform="translate(52 190)">
    <g fill="#fff" stroke="#cad6e6">
      <rect width="292" height="110" rx="12"/>
      <rect x="350" width="292" height="110" rx="12"/>
      <rect x="700" width="292" height="110" rx="12"/>
      <rect x="1050" width="292" height="110" rx="12"/>
    </g>
    <g font-family="Arial, sans-serif">
      <text x="28" y="44" fill="#64748b" font-size="17" font-weight="700">Faturamento</text>
      <text x="28" y="84" fill="#12223f" font-size="36" font-weight="900">R$ 128k</text>
      <text x="378" y="44" fill="#64748b" font-size="17" font-weight="700">Pedidos</text>
      <text x="378" y="84" fill="#12223f" font-size="36" font-weight="900">1.284</text>
      <text x="728" y="44" fill="#64748b" font-size="17" font-weight="700">Ticket médio</text>
      <text x="728" y="84" fill="#12223f" font-size="36" font-weight="900">R$ 99</text>
      <text x="1078" y="44" fill="#64748b" font-size="17" font-weight="700">Conversão</text>
      <text x="1078" y="84" fill="#12223f" font-size="36" font-weight="900">18,4%</text>
    </g>
  </g>
  <g transform="translate(52 350)">
    <rect width="885" height="410" rx="14" fill="#fff" stroke="#cad6e6"/>
    <text x="34" y="48" fill="#12223f" font-family="Arial, sans-serif" font-size="22" font-weight="800">Vendas por mês</text>
    <g stroke="#dbe5f1" stroke-width="1">
      <line x1="58" y1="330" x2="820" y2="330"/><line x1="58" y1="260" x2="820" y2="260"/><line x1="58" y1="190" x2="820" y2="190"/><line x1="58" y1="120" x2="820" y2="120"/>
    </g>
    <polyline points="70,300 170,245 270,270 370,180 470,210 570,120 670,150 790,82" fill="none" stroke="#2764ff" stroke-width="8" stroke-linecap="round" stroke-linejoin="round"/>
    <polyline points="70,332 170,300 270,310 370,252 470,270 570,215 670,224 790,176" fill="none" stroke="#14b8a6" stroke-width="6" stroke-linecap="round" stroke-linejoin="round"/>
  </g>
  <g transform="translate(980 350)">
    <rect width="360" height="190" rx="14" fill="#fff" stroke="#cad6e6"/>
    <text x="28" y="46" fill="#12223f" font-family="Arial, sans-serif" font-size="21" font-weight="800">Categorias</text>
    <circle cx="184" cy="112" r="58" fill="none" stroke="#2764ff" stroke-width="22"/>
    <path d="M184 54a58 58 0 0 1 54 78" fill="none" stroke="#14b8a6" stroke-width="22" stroke-linecap="round"/>
  </g>
  <g transform="translate(980 570)">
    <rect width="360" height="190" rx="14" fill="#fff" stroke="#cad6e6"/>
    <text x="28" y="46" fill="#12223f" font-family="Arial, sans-serif" font-size="21" font-weight="800">Cidades</text>
    <rect x="34" y="80" width="250" height="18" rx="9" fill="#2764ff"/><rect x="34" y="118" width="205" height="18" rx="9" fill="#14b8a6"/><rect x="34" y="156" width="155" height="18" rx="9" fill="#f43f5e"/>
  </g>
</svg>
