<svg xmlns="http://www.w3.org/2000/svg" viewBox="0 0 1440 900" role="img" aria-label="Dashboard analítico">
  <rect width="1440" height="900" fill="#111827"/>
  <rect x="32" y="32" width="1376" height="836" rx="28" fill="#0b1020" stroke="#263247"/>
  <g transform="translate(70 70)">
    <text x="0" y="42" fill="#fff" font-family="Arial, sans-serif" font-size="36" font-weight="900">Painel Analítico 360</text>
    <text x="0" y="78" fill="#9ca3af" font-family="Arial, sans-serif" font-size="18">Vendas, clientes, produtos, canais e eficiência em uma visão integrada</text>
    <g transform="translate(0 118)">
      <rect width="250" height="96" rx="16" fill="#151d31" stroke="#27334c"/>
      <rect x="278" width="250" height="96" rx="16" fill="#151d31" stroke="#27334c"/>
      <rect x="556" width="250" height="96" rx="16" fill="#151d31" stroke="#27334c"/>
      <rect x="834" width="250" height="96" rx="16" fill="#151d31" stroke="#27334c"/>
      <text x="24" y="36" fill="#9ca3af" font-family="Arial" font-size="16" font-weight="700">Receita</text><text x="24" y="72" fill="#fff" font-family="Arial" font-size="32" font-weight="900">R$ 342k</text>
      <text x="302" y="36" fill="#9ca3af" font-family="Arial" font-size="16" font-weight="700">Clientes</text><text x="302" y="72" fill="#fff" font-family="Arial" font-size="32" font-weight="900">2.418</text>
      <text x="580" y="36" fill="#9ca3af" font-family="Arial" font-size="16" font-weight="700">Produtos</text><text x="580" y="72" fill="#fff" font-family="Arial" font-size="32" font-weight="900">186</text>
      <text x="858" y="36" fill="#9ca3af" font-family="Arial" font-size="16" font-weight="700">Eficiência</text><text x="858" y="72" fill="#fff" font-family="Arial" font-size="32" font-weight="900">91%</text>
    </g>
    <g transform="translate(0 260)">
      <rect width="760" height="390" rx="18" fill="#151d31" stroke="#27334c"/>
      <text x="28" y="48" fill="#fff" font-family="Arial" font-size="22" font-weight="800">Tendência por canal</text>
      <g stroke="#27334c"><line x1="42" y1="318" x2="710" y2="318"/><line x1="42" y1="252" x2="710" y2="252"/><line x1="42" y1="186" x2="710" y2="186"/><line x1="42" y1="120" x2="710" y2="120"/></g>
      <polyline points="54,300 150,260 246,276 342,188 438,210 534,142 630,98 704,118" fill="none" stroke="#ff2a12" stroke-width="8" stroke-linecap="round" stroke-linejoin="round"/>
      <polyline points="54,330 150,314 246,284 342,270 438,224 534,232 630,180 704,158" fill="none" stroke="#60a5fa" stroke-width="6" stroke-linecap="round" stroke-linejoin="round"/>
    </g>
    <g transform="translate(804 260)">
      <rect width="456" height="180" rx="18" fill="#151d31" stroke="#27334c"/>
      <text x="28" y="46" fill="#fff" font-family="Arial" font-size="22" font-weight="800">Mix de produtos</text>
      <rect x="32" y="82" width="330" height="18" rx="9" fill="#ff2a12"/><rect x="32" y="122" width="250" height="18" rx="9" fill="#60a5fa"/><rect x="32" y="162" width="190" height="18" rx="9" fill="#22c55e"/>
    </g>
    <g transform="translate(804 470)">
      <rect width="456" height="180" rx="18" fill="#151d31" stroke="#27334c"/>
      <text x="28" y="46" fill="#fff" font-family="Arial" font-size="22" font-weight="800">Páginas do relatório</text>
      <g font-family="Arial" font-size="17" font-weight="800">
        <rect x="28" y="76" width="170" height="38" rx="19" fill="#222c43"/><text x="48" y="101" fill="#e5e7eb">Vendas</text>
        <rect x="218" y="76" width="170" height="38" rx="19" fill="#222c43"/><text x="238" y="101" fill="#e5e7eb">Clientes</text>
        <rect x="28" y="128" width="170" height="38" rx="19" fill="#222c43"/><text x="48" y="153" fill="#e5e7eb">Produtos</text>
        <rect x="218" y="128" width="170" height="38" rx="19" fill="#222c43"/><text x="238" y="153" fill="#e5e7eb">Canais</text>
      </g>
    </g>
  </g>
</svg>
